<svg version="1" xmlns="http://www.w3.org/2000/svg" width="600" height="600"><g fill="none" stroke="#E91E63" stroke-width="24" stroke-miterlimit="10"><path d="M372 228c48 47 85 98 107 143 26 54 30 100 11 119-20 20-68 16-126-13-43-22-92-59-137-104-46-47-85-96-107-140-27-56-30-104-10-123 19-19 63-16 116 9 46 22 98 61 146 109z"/><path d="M273 201c65-17 128-24 178-21 60 4 101 24 108 50 7 27-20 67-74 102-41 27-97 51-159 67-63 17-125 26-174 23-63-5-105-26-112-53-7-25 17-62 66-96 42-28 101-54 167-72z"/><path d="M200 274c18-65 43-123 71-165 34-50 71-76 97-69 27 7 48 51 52 115 3 49-5 110-21 172-17 63-41 121-68 162-35 52-75 78-101 71s-46-47-50-106c-4-50 3-115 20-180z"/></g><path fill="#E91E63" d="M300 349l-3-1-36-35-2-2a60 60 0 0 1-7-9l-3-7-2-8c0-9 3-16 8-21 5-4 12-7 20-7l8 1 7 4 6 4 4 4a54 54 0 0 1 17-12l8-1c8 0 15 3 20 7 5 5 8 12 8 21 0 8-5 17-14 26l-36 35-3 1z"/></svg>
